/* XPM */
static char *result[] = {
/* columns rows colors chars-per-pixel */
"48 48 6 1 ",
"  c #A53030",
". c #CF573C",
"X c #DA863E",
"o c #E8C170",
"O c #E7D5B3",
"+ c None",
/* pixels */
"++++++++++++++++++++++++++++++++++++++++++++++++",
"++++++++++++++++++++++++++++++++++++++++++++++++",
"++++++++++++++++++++++++++++++++++++++++++++++++",
"++++++++++++++++++++++++++++++++++++++++++++++++",
"++++++++++++++++++++++++ +++++++++++++++++++++++",
"++++++++++++++++++++++    ++ +++++++++++++++++++",
"++++++++++++++++++++          ++++++++++++++++++",
"+++++++++++++++++++X         +++++++++++++++++++",
"+++++++++++++++++++      X  ++++++++++++++++++++",
"+++++++++++++++++++ +  .XX  ++++++++++++++++++++",
"+++++++++++++++++++++  .X   ++++++++++++++++++++",
"+++++++++++++++++++++ ...    +++++++++++++++++++",
"++++++++++++++++++++ .....    ++++++++++++++++++",
"++++++++++++++++ ..........     ++++++++++++++++",
"++++++++++++++++............     +++++++++++++++",
"+++++++++++++ ++.......XXXX. XX   ++++++++++++++",
"++++++++++++  + ......XXXXXXXXXX  ++++++++++++++",
"++++++++++++ ++  .....XXXXXX. .X +++++++++++++++",
"+++++++++++++++  ....XXXXXXX .. X+++++++++++++++",
"++++++++++++++++ ...XXXXXXXX .  ++++++++++++++++",
"++++++++++++++++....XXoXXXX.    ++++++++++++++++",
"+++++++++++++++..X..XXooXXX..   ++++++++++++++++",
"+++++++++++++  ...XXXXXooXXXXX  X+++++++++++++++",
"++++++++++++  ...XXXXXXXoooXXXX  X++++++++++++++",
"++++++++++++ ...XXXXXXXXooXXXXX  X+.++++++++++++",
"++++++++++++....XXXXXXXXoooXXXX. X..+++ ++++++++",
"++++++++++++ ...XXXXXXXooooooXXX....++  ++++++++",
"+++++++++++++ ...XXXXXooooooXXX.....++ +++++++++",
"++++++++++++++ ..X.XXoooooooXX..... ++++++++++++",
"++++++++++++++ ..X.oooooOOooXX....   +++++++++++",
"+++++++++++++  ....ooooOOOooX....   ++++++++++++",
"+++++++++++++ ....oooooOOOoooXXXX  +++++++++++++",
"+++++++++++++ ..XXoOOOOOOoooooXXXX +++++++++++++",
"++++++++++++  .XXXooOOOOOoooooXXXX +++++++++++++",
"++++++++++++  .XXXoooOOOOooooXXXXX. ++++++++++++",
"++++++++++++  .XXXooooOOOOooooXXX.   +++++++++++",
"++++++++++++  ..XXXoooOOOOOooooXX.   +++++++++++",
"+++++++++++++  ..XooooOOOOOOooXX     +++++++++++",
"+++++++++++++++ ooooooOOOOOOOoo.    ++++++++++++",
"++++++++++++++  oooooOOOOOOoooo.   +++++++++++++",
"+++++++++++++   ooooOOOOOOOoooX. +++++++++++++++",
"+++++++++++++++.oooOOOOOOOOOoXXX++++++++++++++++",
"++++++++++++++++.oooOOOOOOOXXXX ++++++++++++++++",
"++++++++++++++++ ...XXOOOOooXX +++++++++++++++++",
"+++++++++++++++++  XXoooOooX. ++++++++++++++++++",
"++++++++++++++++++   ooooo. ++++++++++++++++++++",
"++++++++++++++++++++     +++++++++++++++++++++++",
"++++++++++++++++++++++++++++++++++++++++++++++++"
};
