/* XPM */
static char *result[] = {
/* columns rows colors chars-per-pixel */
"48 48 6 1 ",
"  c #A53030",
". c #CF573C",
"X c #DA863E",
"o c #E8C170",
"O c #E7D5B3",
"+ c None",
/* pixels */
"++++++++++++++++++++++++++++++++++++++++++++++++",
"++++++++++++++++++++++++++++++++++++++++++++++++",
"++++++++++++++++++++++++++++++++++++++++++++++++",
"++++++++++++++++++++++++++++++++++++++++++++++++",
"++++++++++++++++++++ +   +++ +++++++++++++++++++",
"++++++++++++++++++++          ++++++++++++++++++",
"++++++++++++++++++++      X   ++++++++++++++++++",
"++++++++++++++++++++++   XX  +++++++++++++++++++",
"+++++++++++++++++++++++ .X  ++++++++++++++++++++",
"+++++++++++++++++++++++ .   ++++++++++++++++++++",
"++++++++++++++++++++++ ..    +++++++++++++++++++",
"+++++++++++++  +++.++ ....    ++++++++++++++++++",
"+++++++++++++ +++..........     ++++++++++++++++",
"+++++++++++++ +++............    +++++++++++++++",
"+++++++++++++ +++......XXX..X    +++++++++++++++",
"++++++++++++++++ .....XXXXX..X. ++++++++++++++++",
"+++++++++++++++   ....XXXXX....+++++++++++++++++",
"++++++++++++++++  ....XXXXX.. .+++++++++++++++++",
"+++++++++++++++++ ...XXXXXX.   +++++++++++++++++",
"+++++++++++++++++...XXXXXX..   +++++++++++++++++",
"+++++++++++++++.....XXooXX...  +X+++++++++++++++",
"+++++++++++++  .....XXXooXXXX  +X+++++++++++++++",
"++++++++++++   ..XXXXXXXoooXXX  X+..++ +++++++++",
"++++++++++++  ..XXXXXXXXoooXXX. X...+++ ++++++++",
"++++++++++++ ...XXXXXXXXoooXXXX..X..+++ ++++++++",
"++++++++++++ ...XXXXXXXXoooXXX......+++ ++++++++",
"+++++++++++++ ...XXXXXXooooXX......+++++++++++++",
"++++++++++++++ .....XXoooooXX.....  ++++++++++++",
"++++++++++++++ ....ooooOOooXX....   ++++++++++++",
"++++++++++++++ ....oooOOOOooX.XXX  +++++++++++++",
"++++++++++++  ....XoooOOOooooXXXXX +++++++++++++",
"+++++++++++   .XXXXOOOOOOoooooXXXX +++++++++++++",
"+++++++++++   XXXXXXOOOOOoooXXXXXX +++++++++++++",
"+++++++++++   XXXXXXoOOOOooooXXXXX  ++++++++++++",
"+++++++++++  .XXXXXXooOOOOooooXXXX   +++++++++++",
"++++++++++++..XXXXXoooOOOOOooXXXX    +++++++++++",
"+++++++++++++  XXXooooOOOOOOooXX.    +++++++++++",
"++++++++++++++  ooooooOOOOOOOOo..   ++++++++++++",
"+++++++++++++   oooooOOOOOOOOoo..  +++++++++++++",
"++++++++++++    ooooOOOOOOOoooo.. ++++++++++++++",
"+++++++++++++   .ooOOOOOOOOOooXX +++++++++++++++",
"++++++++++++++ ...ooOOoOOOOOOXXXX+++++++++++++++",
"++++++++++++++  ...oooOOOOOOXXXX++++++++++++++++",
"+++++++++++++++   ..ooOOOOOooXX+++++++++++++++++",
"++++++++++++++++   XXXXOOOooX+++++++++++++++++++",
"++++++++++++++++++   .ooOoo+++++++++++++++++++++",
"++++++++++++++++++++++++++++++++++++++++++++++++",
"++++++++++++++++++++++++++++++++++++++++++++++++"
};
