/* XPM */
static char *result[] = {
/* columns rows colors chars-per-pixel */
"48 48 6 1 ",
"  c #A53030",
". c #CF573C",
"X c #DA863E",
"o c #E8C170",
"O c #E7D5B3",
"+ c None",
/* pixels */
"++++++++++++++++++++++++++++++++++++++++++++++++",
"++++++++++++++++++++++++++++++++++++++++++++++++",
"++++++++++++++++++++ +++++++++++++++++++++++++++",
"++++++++++++++++++++ ++ +++  +++++++++++++++++++",
"++++++++++++++++++++++   XX   ++++++++++++++++++",
"++++++++++++++++++++++   .X  +++++++++++++++++++",
"+++++++++++++++++++++++ ..X.++++++++++++++++++++",
"+++++++++++++++++++++++ .. +++++++++++++++++++++",
"++++++++++++++ +++.++++..  +++++++++++++++++++++",
"++++++++++++++ ++ ..++..    ++++++++++++++++++++",
"++++++++++++++ ++.......     +++++++++++++++++++",
"+++++++++++++++++........     . ++++++++++++++++",
"+++++++++++++++++.........   ..  +++++++++++++++",
"+++++++++++++++++.............. ++++++++++++++++",
"++++++++++++++++ .....XXX....  .++++++++++++++++",
"++++++++++++++++  ...XXXXX..  ..++++++++++++++++",
"++++++++++++++++  ...XXXXX.   ++++++++++++++++++",
"++++++++++++++++. ...XXXXX.    ++++ ++++++++++++",
"++++++++++++++++....XXooXX.    X++++++++++++++++",
"++++++++++++++++....XXooo...   X++++++++++++++++",
"++++++++++++++  X...XXXooooXX  +X++++  +++++++++",
"+++++++++++++  .XXXXXXXXoooXXX  +..+++ +++++++++",
"++++++++++++  ..XXXXXXXXoooXXX.....+++ +++++++++",
"++++++++++++ ...XXXXXXXXooXXXXX....+++++++++++++",
"++++++++++++  ..XXXXXXXXooXXXX..... ++++++++++++",
"+++++++++++++  .XXXXXXXoooXXX...... ++++++++++++",
"++++++++++++++ ..XXXXXooooXXX..... +++++++++++++",
"+++++++++++++X ....oooooXoXXX.... ++++++++++++++",
"+++++++++++++X ....ooooooOoXXXXX. ++++++++++++++",
"+++++++++++++ .....XoooOOoooXXXXX ++++++++++++++",
"++++++++++++  .XXXXXXoOOOooooXXXXX +++++++++++++",
"+++++++++++   XXXXXXXOOOOoooXXXXXX  ++++++++++++",
"+++++++++++  .XXXXXXXoOOOooooXXXXX   +++++++++++",
"+++++++++++ ..XXXXXXooOOOOooooXXX     ++++++++++",
"++++++++++++..XXXXXoooOOOOOoooXX.    +++++++++++",
"++++++++++ ++++XXXooooOOOOOOoXX..    +++++++++++",
"+++++++++++ ++  .ooooOOOOOOOOOo..   ++++++++++++",
"++++++++++++    ooooOOOOOOOOOoo..  +++++++++++++",
"+++++++++++++X  oooOOOOOOOOoooo..  +++++++++++++",
"+++++++++++++   oooOOOOOOOOOooXX.  +++++++++++++",
"+++++++++++++  ..ooOOOOOOOOOOXXXX ++++++++++++++",
"++++++++++++++  ...oOOOOOOOOOOXX  ++++++++++++++",
"++++++++++++++    .ooOOOOOOoooX  +++++++++++++++",
"+++++++++++++++    oOOOOOOooo.  ++++++++++++++++",
"++++++++++++++++   ooOOOOooo. ++++++++++++++++++",
"++++++++++++++++++  ooOOooo+++++++++++++++++++++",
"++++++++++++++++++++++++++++++++++++++++++++++++",
"++++++++++++++++++++++++++++++++++++++++++++++++"
};
