/* XPM */
static char *result[] = {
/* columns rows colors chars-per-pixel */
"48 48 6 1 ",
"  c #A53030",
". c #CF573C",
"X c #DA863E",
"o c #E8C170",
"O c #E7D5B3",
"+ c None",
/* pixels */
"++++++++++++++++++++++++++++++++++++++++++++++++",
"+++++++++++++++++++++++++X++++++++++++++++++++++",
"++++++++++++++++++++ ++++X +++++++++++++++++++++",
"++++++++++++++++++++++   X   +++++++++++++++++++",
"+++++++++++++++++++++++      +++++++++++++++++++",
"++++++++++++++++++++++++ .  ++++++++++++++++++++",
"++++++++++++++++++++++++ . +++++++++++++++++++++",
"++++++++++++++++++++++++   +++++++++++++++++++++",
"++++++++++++++ ++ .++++     ++++++++++++++++++++",
"++++++++++++++++++..++ .     ++ ++++++++++++++++",
"+++++++++++++++++........    .. ++++++++++++++++",
"+++++++++++++++++.........  ...+++++++++++++++++",
"+++++++++++++++++..............+++++++++++++++++",
"++++++++++++++++++....XXX..X.+.+++++++++++++++++",
"++++++++++++++++.  ..XXXXoXX +..++++++++++++++++",
"++++++++++++++++.+ ..XXXXoo   ++++++++++++++++++",
"++++++++++++++++.+...XoooXo   +X++++++++++++++++",
"++++++++++++++++X..X.XXooo.    X++++ +++++++++++",
"++++++++++++++++X...XXXoooo.   X++++  ++++++++++",
"++++++++++++++  X....XXXoooX.  ++.+++ ++++++++++",
"+++++++++++++  .X....XXXXooXX. +..+++ ++++++++++",
"+++++++++++++ ....XXXXXXXooXXX.....+++++++++++++",
"++++++++++++ ....XXXXXXXXoXXXX..X..+++++++++++++",
"+++++++++++++ ...XXXXXXXoXXXXX.... +++++++++++++",
"++++++++++++++ ..XXXXXXooXXXX....   ++++++++++++",
"++++++++++++++ ...XXXXoooXXX....   +++++++++++++",
"+++++++++++++X .....ooooooXXX...  ++++++++++++++",
"++++++++++++++......XooooooXXXXX  ++++++++++++++",
"++++++++++++++.XXX.XXoooooooXXXXX ++++++++++++++",
"+++++++++++   XXXXXXXoooOooXXXXXX  +++++++++++++",
"+++++++++++  .XXXXXXXoOOOoooXXXXX   ++++++++++++",
"+++++++++++ ..XXXXXXoooOOoooooXXX    +++++++++++",
"+++++++++++ ..XXXXXooooOOOooooXXX    +++++++++++",
"+++++++++++    XXXXXoooOOOOoooXX.   ++++++++++++",
"++++++++++++    ..XooooOOOOOooX... +++++++++++++",
"+++++++++++ ++   oooooOOOOOOOOo..   ++++++++++++",
"++++++++++++ X ..ooooOOOOOOOOOo..   ++++++++++++",
"++++++++++++    .oooOOOOOOOOOOoX.  +++++++++++++",
"++++++++++++    .ooOOOOOOOOOOOoX.  +++++++++++++",
"++++++++++++    ..oOOOOOOOOOOOXXX  +++++++++++++",
"+++++++++++++  .o.ooOOOOOOOOOOXX.  +++++++++++++",
"+++++++++++++  ...oooOOOOOOOOo..  ++++++++++++++",
"++++++++++++++   .ooOOOOOOOOoX.. +++++++++++++++",
"+++++++++++++++   ooOOOOOOOoX..+++++++++++++++++",
"+++++++++++++++++  ooOOOOooo..++++++++++++++++++",
"+++++++++++++++++++++.OOooo.++++++++++++++++++++",
"++++++++++++++++++++++++++++++++++++++++++++++++",
"++++++++++++++++++++++++++++++++++++++++++++++++"
};
