/* XPM */
static char *ef6a72ca1c0445adfa7c7a1aab7e2feexoDlzNtkuEX2OX62[] = {
/* columns rows colors chars-per-pixel */
"48 48 6 1 ",
"  c None",
". c #A53030",
"X c #CF573C",
"o c #DA863E",
"O c #E8C170",
"+ c #E7D5B3",
/* pixels */
"                                                ",
"                         o                      ",
"                       ....                     ",
"                      ......                    ",
"                       ....                     ",
"                        ..                      ",
"                        ..                      ",
"                  .X   ....                     ",
"                  XXX ......                    ",
"                  XXXXX...... X.                ",
"                 XXXXXXX.....XX..               ",
"                X.XXXXXXX...XXX  .              ",
"                X .XXXXXOXXXX.                  ",
"                X ..XXooOOXoo                   ",
"                X  .XooooOoo.  o                ",
"                   XXoooooX... o    .           ",
"                o XXooooOoX... o    .           ",
"             .  oXXXXooooOXX..      .           ",
"              ...XXXXXoXXOoo..                  ",
"              ..XXXXXXoXoOooo..  X              ",
"              .XXXoooooooooooX..XX              ",
"             ..XXooooooooooooXXXoX              ",
"             ...XooooooooooooXXXXX.             ",
"              ..XoooooooOoooXXXXX..             ",
"              o.XooooooOOoooXXXX..              ",
"             .oXXXoooOOOOooooooX.               ",
"         .. ..XXoooXooOOOOoooooo.               ",
"          .  .XooooooOOOOOOoooooo               ",
"          ....oooooooOOOOOOoooooo.              ",
"           ..XoooooooOOOOOOoooooo..             ",
"           .XXooooooOOOO+OOOOOoo....            ",
"           ...oooooOOOOO++OOOoooo...            ",
"           ....oooooOOOO+++OOoooX...            ",
"            ... XOOOOOO+++++OOoXXX..            ",
"              X.XOOOOO++++++OOOXX...            ",
"             oXXooOOO+++++++OOoXX..             ",
"           ....XXooO++++++++OOoXX..             ",
"           ....XXX++++++++++OOOXX..             ",
"           ...XXXXo+++++++++OOOoX..             ",
"           ...XXXXoO+++++++++OOooX..            ",
"            ...XXoOOO+++++++++OXXX.             ",
"            ....oOOO+++++++++OXXX.              ",
"             ....OOO+++++++OOXXXX               ",
"              ...OOOO++++OOOXXXX                ",
"                ..OOOO++OOOOoXX                 ",
"                     XXOOOOXX                   ",
"                                                ",
"                                                "
};
