/* XPM */
static char *b929938fe9ad4db0fd5c7891255e21a4TJLai3Km4Cw9xA8K[] = {
/* columns rows colors chars-per-pixel */
"48 48 6 1 ",
"  c None",
". c #A53030",
"X c #CF573C",
"o c #DA863E",
"O c #E8C170",
"+ c #E7D5B3",
/* pixels */
"                                                ",
"                                                ",
"                                                ",
"                        ...                     ",
"                        ..                      ",
"                        ..                      ",
"                        ..                      ",
"                   XX  ....  X                  ",
"                X XXXXX..... XX.                ",
"                X XXXXXXO...XXX..               ",
"                X XXXXXXO..XXXX                 ",
"                X .XXXXXOXXXX. o    .           ",
"                   .XXXXXXXX.  o    .           ",
"                 o  XXoooXo..  o    .           ",
"                 o  XoooooX..  o    .           ",
"                oo XooooooX...                  ",
"                 .XXXoooOoXX..                  ",
"               ..XXXXXoooOoo..                  ",
"              ..XXXXXXoXoOooo..                 ",
"              .XXXXXXXoooooooX.oX               ",
"              ..XXXooooooooooXXXo..             ",
"              ..XXoooooooooooXXX....            ",
"               .XXooooooooooXXX....             ",
"          .   ooXXoooooOooooXXX...              ",
"          .   .XoXXooOOOOoooooo..               ",
"          .  .XXoooXoOOOOOoooooo.               ",
"          . ..XoooooooOOOOOOoooo.               ",
"           ..XXoooooooOOOOoooooo..              ",
"           .XXXoooooooOOOOoooooo...             ",
"           XXXXooooooOOOOOOOOOoo....            ",
"           ...XXooooOOOO++OOOoooX...            ",
"           ..X.XXOooooOO+++OOooXXX..            ",
"            .XX.XOOOOOO+++++OooXXX..            ",
"              X.XOOOOO++++++ooXXX....           ",
"             ..XooOOOO++++++OoXXX...            ",
"          ....XXoo++++++++++OOXXX..             ",
"          ....XXXo++++++++++OOOXX..             ",
"          ....XXXXo+++++++++OOOoX...            ",
"          ....XXXXoo++++++++OOOoXX..            ",
"           ....XXooOO++++++++OOXXXX.            ",
"           .....XoOOO+++++++OOXXXX.             ",
"            .....OOO+++++++OOXXXXX              ",
"             ....OOO+++++++OXXXXX               ",
"              ....OOO++++OOOOXXX                ",
"                ...XoO++OOOOoX                  ",
"                     ooOOOOoo                   ",
"                       oooo                     ",
"                                                "
};
