/* XPM */
static char *_4a6c3bcdff34a9ba0e9ea971d1571fbAs5XHxtUWwmbrdkt[] = {
/* columns rows colors chars-per-pixel */
"48 48 6 1 ",
"  c None",
". c #A53030",
"X c #CF573C",
"o c #DA863E",
"O c #E8C170",
"+ c #E7D5B3",
/* pixels */
"                                                ",
"                                                ",
"                                                ",
"                                                ",
"                                                ",
"                         .                      ",
"                       ....  X                  ",
"                X    ....... X..                ",
"                X   ....O........               ",
"                   .....O......o    .           ",
"                  oo.XXXX..... o    .           ",
"                  o..XXXXXX..  o                ",
"                  o .XXXXX...                   ",
"                 .o XXoooX...                   ",
"                 . XXooooo....                  ",
"                 .XXXoooooX...                  ",
"                .XXXXoooooXX..                  ",
"               .XXXXXXoooooo..                  ",
"              .XXXXXXXXoooooo..                 ",
"              ..XXXooooooooooX..  .             ",
"              ..XXoooooooooooXX.....            ",
"           .   .XXooooooooooXX....              ",
"           .   oXXoooooOooooXX...               ",
"           .  XXXXXooOOOOooooo..                ",
"         ..  .XXoooXXOOOOOooooo.                ",
"            ..XoooooooOOOOOOooo..               ",
"           ..XXoooooooOOOOOooooX..              ",
"           .XXXoooooooOOOOoooooXo..             ",
"           ..XXooooooOOOOOOOOooXo...            ",
"           ..XXXooooOOOOOOOOOoooXX..X           ",
"            .X.XXoOOOOOO+OOOOoXoXXX..           ",
"              ..XOOOOOO+++OOOoXXXX...           ",
"             ...XOOOOO+++++OOOXXX....           ",
"            ....oOOOOO++++++OOXXX...            ",
"            ...Xoo+++++++++OOOOXX..             ",
"            ..XXoo+++++++++OOOOoXX.             ",
"           ...XXoo+++++++++OOOOoXXX             ",
"          ....XXooo++++++++OOOOooXXX            ",
"          .....XoooOO+++++++OOOoXXX..           ",
"           ....XXoOO+++++++++OoXX...            ",
"           ....XXOO+++++++++OOXX...             ",
"            ....XOO++++++++OOoX..               ",
"             ...XOOO+++++++OOoX                 ",
"               ..XOOO+++OOOOOoo                 ",
"                  XoooOOOOOOoo                  ",
"                    XooOOOOoo                   ",
"                      .oooo                     ",
"                                                "
};
