/* XPM */
static char *_8b7dc1e3f9b462190519eed76dfc84beJP8oM0QK1ssdMYd[] = {
/* columns rows colors chars-per-pixel */
"48 48 6 1 ",
"  c None",
". c #A53030",
"X c #CF573C",
"o c #DA863E",
"O c #E8C170",
"+ c #E7D5B3",
/* pixels */
"                                                ",
"                                                ",
"                                                ",
"                                                ",
"                                                ",
"                       ....                     ",
"                X    ........X.                 ",
"                    ..........                  ",
"                   o....O....       .           ",
"                   o..XXXX..   o                ",
"                  .o..XXXXX.                    ",
"                  .  .XXoX..                    ",
"                 ..  XXooX...                   ",
"                    XXoooX....                  ",
"                  XXXoooooX....  .              ",
"                .XXXXoooooXX......              ",
"               .XXXXXooooooX.....               ",
"               .XXXXXXooooooX.....              ",
"            . ..XXXXooooooooXX.....             ",
"            . ...XXoooooooooXX....              ",
"           ..  ..XXooooooooXXX...               ",
"           .   .XXXooooooooXX...                ",
"              .oooXooOOOoooooo..                ",
"          .  .XXooooooOOOoooooo.                ",
"           ...XooooooooOOOooooo.                ",
"           ..XXooooooooOOOOoooo..o              ",
"           .XXXooooooooOOOOoOOoXoo  X           ",
"           ..XXooooooooOOOOOOOooo. XX           ",
"           ...XXooooooOOOOOOoooXXXXXX .         ",
"            ...XXXoooOOOO+OOOoXXXXX. ..         ",
"              .XXXOOOOOO++OOOoXXXX....          ",
"              .XXOOOOOO+++OOOXXXX....           ",
"             .XXoOOOOO+++++OOOooX...            ",
"             XXXoOO+++++++OOOOOoo..             ",
"            ..XoooOO++++++OOOOOooX.             ",
"            ..XooooOO+++++OOOOOooXX.            ",
"            ..XooooOOO+++++OOOOooXX..           ",
"             ..XoooOOO++++++OOoooX...           ",
"             ...XoOOOO+++++++OOo....            ",
"              ..OOOOO++++++++OOX...             ",
"             ..XOOOO+++++++OOOOX.               ",
"             ..XOOO+++++++++OOo                 ",
"               .XOOO++++++++oooo                ",
"                 XXOO++OOOO+ooo                 ",
"                  XooOOOOOOOoo                  ",
"                   .ooOOOOOo                    ",
"                     .....                      ",
"                                                "
};
